<svg width="12" height="12" viewBox="0 0 12 12" fill="none" xmlns="http://www.w3.org/2000/svg">
<mask id="path-1-outside-1_2436_65" maskUnits="userSpaceOnUse" x="0.379059" y="0.0499992" width="12" height="12" fill="black">
<rect fill="white" x="0.379059" y="0.0499992" width="12" height="12"/>
<path fill-rule="evenodd" clip-rule="evenodd" d="M9.98183 2.37548C9.98183 2.38031 9.98584 2.38437 9.99072 2.38437L9.99007 2.38339H10.5832C10.5938 2.38339 10.6023 2.39208 10.6023 2.40251V2.52027C10.6023 2.5309 10.5936 2.53939 10.5832 2.53939H9.99029C9.98552 2.53939 9.98139 2.54344 9.98139 2.54827V2.80967C9.98139 2.8315 9.9646 2.84809 9.94303 2.84809L8.4054 2.84616C8.39748 2.84616 8.39066 2.85177 8.38892 2.85948L8.32356 3.15854C8.32042 3.17031 8.31543 3.18171 8.30871 3.19214L8.25462 3.27612C8.25039 3.28268 8.24898 3.29059 8.25082 3.29813L8.38188 3.85241C8.38491 3.86708 8.37581 3.88156 8.36117 3.88484L7.80531 4.0086C7.78992 4.01207 7.77637 4.00338 7.7729 3.98794L7.72021 3.74236C7.71902 3.73638 7.71079 3.73561 7.70829 3.7412L7.51946 4.18274C7.50635 4.20783 7.48651 4.22888 7.46234 4.24375C7.37085 4.29973 7.19503 4.36286 7.08836 4.36363C7.06148 4.36363 7.03503 4.35592 7.01172 4.34279L6.62681 4.12559C6.61608 4.11961 6.60253 4.12327 6.59656 4.13409L6.45174 4.29066C6.44546 4.30186 6.44556 4.31575 6.45217 4.32677L6.54887 4.44666C6.55602 4.45843 6.55635 4.4733 6.54984 4.48546L6.07733 5.37413C6.07137 5.38552 6.05977 5.39304 6.04687 5.3942L5.9104 5.4056C5.9 5.40637 5.89306 5.4164 5.89577 5.42645L5.92569 5.88728C5.92948 5.90157 5.93642 5.9147 5.94606 5.92589C5.95582 5.93709 5.96753 5.94772 5.97956 5.95602C5.99625 5.9676 6.00959 5.98343 6.01989 6.0012C6.10975 6.15834 6.48881 6.8219 6.54962 6.93002C6.56101 6.95028 6.57781 6.97929 6.59786 7.0141C6.69932 7.18998 6.88598 7.51353 6.90105 7.59975C6.92566 7.73953 6.9378 7.87178 6.90105 7.98936L6.1169 9.84063C6.11245 9.85182 6.10573 9.86206 6.09706 9.87036L5.84244 10.1215C5.83181 10.132 5.829 10.1482 5.83528 10.1617L5.96601 10.3551C5.98531 10.3814 6.01251 10.4007 6.04373 10.4104L6.53055 10.5573C6.5338 10.5584 6.53694 10.56 6.53976 10.5617C6.54052 10.5621 6.54637 10.5652 6.55234 10.5735C6.55331 10.5747 6.55385 10.5758 6.55461 10.577C6.55505 10.5776 6.55537 10.5782 6.5557 10.5788C6.55656 10.5801 6.55732 10.5816 6.55797 10.5832L6.5583 10.5837V10.5839C6.56144 10.5911 6.56415 10.5999 6.56545 10.6117C6.56588 10.6144 6.56621 10.6173 6.56621 10.6202V10.6216V10.6312C6.56599 10.6326 6.56599 10.6341 6.56599 10.6355L6.56545 10.6422C6.55927 10.7011 6.51797 10.7469 6.48231 10.7841C6.46334 10.8038 6.43407 10.8216 6.38887 10.8376C6.38595 10.8388 6.38313 10.8397 6.3802 10.8407C6.31516 10.8627 6.21955 10.8818 6.07983 10.8996C6.07083 10.9007 6.05695 10.9021 6.04882 10.9025C6.0059 10.9042 5.93338 10.9052 5.93208 10.9052H5.93122L4.883 10.8994C4.86935 10.8994 4.8584 10.8878 4.85916 10.8741L4.92083 10.427C4.92333 10.3812 4.93948 10.3481 4.95487 10.3168C4.97005 10.2858 4.98436 10.2565 4.98382 10.2181L5.15346 9.60625C5.15649 9.58501 5.16159 9.56378 5.16809 9.54331L5.35551 8.66236L5.77978 7.91637C5.78878 7.90035 5.78358 7.87988 5.76775 7.87024C5.75139 7.86025 5.7283 7.8487 5.70337 7.8363C5.65459 7.81195 5.59919 7.78435 5.57589 7.75903C5.44874 7.62002 5.15747 7.19818 5.09883 7.11246C5.07119 7.07218 5.03205 7.00993 4.99108 6.94455C4.92691 6.8423 4.85797 6.73241 4.82014 6.68696C4.80182 6.66494 4.77211 6.65626 4.74491 6.66514L4.70014 6.67962C4.68193 6.6856 4.66708 6.69873 4.65884 6.71591L3.95089 8.27895C3.92444 8.33416 3.87176 8.41756 3.83296 8.46486L2.34736 10.2105L2.35842 10.291L2.31614 10.8258C2.31462 10.8922 2.26107 10.9542 2.21284 10.9498L1.43367 10.9486L1.3953 10.872L1.38251 10.8428C1.37752 10.8314 1.37796 10.8185 1.3837 10.8075L1.64039 10.3584C1.65643 10.3275 1.67031 10.1742 1.66955 10.1395L1.61513 10.0424C1.61416 10.0032 1.62901 9.94392 1.64754 9.90955L2.41381 8.29111C2.48286 8.16273 2.6241 7.97873 2.72957 7.87795L2.95959 7.70208C2.96599 7.69571 2.97076 7.68798 2.97325 7.67929L3.0385 7.30475C3.04143 7.28815 3.04349 7.27155 3.04512 7.25494L3.12772 6.31107C3.13075 6.2765 3.1597 6.24967 3.19449 6.24967L3.3327 6.2489C3.34419 6.2489 3.35449 6.24137 3.35774 6.23017L3.60402 5.59866C3.605 5.59538 3.60619 5.59209 3.60749 5.58901C3.60998 5.5834 3.61421 5.57838 3.61887 5.57433L3.79783 5.4166C3.80239 5.40869 3.80574 5.39999 3.80748 5.39111L3.94233 4.99244C3.9445 4.98356 3.94136 4.9741 3.93431 4.96811L3.676 4.80652C3.66635 4.79533 3.66266 4.77524 3.66884 4.76193L4.03891 3.71302C4.04509 3.6997 4.0607 3.68791 4.07533 3.68791L4.31327 3.68714C4.32508 3.68773 4.33614 3.68116 4.34145 3.67073C4.34145 3.67073 4.38361 3.57942 4.63965 3.03151C4.90046 2.47356 5.25416 2.27952 5.41307 2.27316C5.49773 2.26968 5.66954 2.26524 5.66954 2.26524C5.67973 2.26524 5.68862 2.25848 5.69133 2.24864L5.77198 2.11485L5.62596 2.05171C5.61512 2.04322 5.60852 2.03028 5.60852 2.01638L5.58748 1.61153C5.58748 1.604 5.60298 1.52176 5.60645 1.515L5.64624 1.42735C5.67865 1.3648 5.72016 1.30746 5.77046 1.25842C5.88374 1.14799 6.09609 1.00956 6.42009 1.06111C7.0862 1.16729 7.22441 1.64223 7.24132 1.71327C7.24272 1.71887 7.24673 1.72331 7.25215 1.72544L7.34559 1.76038C7.3547 1.76366 7.3599 1.77332 7.35773 1.78278L7.25714 2.19072C7.25432 2.2023 7.24348 2.21003 7.23156 2.20906L7.09356 2.19593C7.08132 2.19362 7.07015 2.20327 7.07037 2.21562L7.07579 2.2886C7.076 2.29922 7.08468 2.30772 7.0953 2.30772H9.79387C9.79712 2.30772 9.80005 2.30617 9.80189 2.30347C9.81848 2.27946 9.83994 2.24812 9.85826 2.22143C9.87788 2.19297 9.8937 2.16978 9.89609 2.16639C9.90519 2.15326 9.91907 2.14477 9.93468 2.14477C9.96178 2.14477 9.98335 2.16967 9.98335 2.20057L9.98314 2.22199C9.98281 2.26435 9.98216 2.34815 9.98183 2.37548Z"/>
</mask>
<path fill-rule="evenodd" clip-rule="evenodd" d="M9.98183 2.37548C9.98183 2.38031 9.98584 2.38437 9.99072 2.38437L9.99007 2.38339H10.5832C10.5938 2.38339 10.6023 2.39208 10.6023 2.40251V2.52027C10.6023 2.5309 10.5936 2.53939 10.5832 2.53939H9.99029C9.98552 2.53939 9.98139 2.54344 9.98139 2.54827V2.80967C9.98139 2.8315 9.9646 2.84809 9.94303 2.84809L8.4054 2.84616C8.39748 2.84616 8.39066 2.85177 8.38892 2.85948L8.32356 3.15854C8.32042 3.17031 8.31543 3.18171 8.30871 3.19214L8.25462 3.27612C8.25039 3.28268 8.24898 3.29059 8.25082 3.29813L8.38188 3.85241C8.38491 3.86708 8.37581 3.88156 8.36117 3.88484L7.80531 4.0086C7.78992 4.01207 7.77637 4.00338 7.7729 3.98794L7.72021 3.74236C7.71902 3.73638 7.71079 3.73561 7.70829 3.7412L7.51946 4.18274C7.50635 4.20783 7.48651 4.22888 7.46234 4.24375C7.37085 4.29973 7.19503 4.36286 7.08836 4.36363C7.06148 4.36363 7.03503 4.35592 7.01172 4.34279L6.62681 4.12559C6.61608 4.11961 6.60253 4.12327 6.59656 4.13409L6.45174 4.29066C6.44546 4.30186 6.44556 4.31575 6.45217 4.32677L6.54887 4.44666C6.55602 4.45843 6.55635 4.4733 6.54984 4.48546L6.07733 5.37413C6.07137 5.38552 6.05977 5.39304 6.04687 5.3942L5.9104 5.4056C5.9 5.40637 5.89306 5.4164 5.89577 5.42645L5.92569 5.88728C5.92948 5.90157 5.93642 5.9147 5.94606 5.92589C5.95582 5.93709 5.96753 5.94772 5.97956 5.95602C5.99625 5.9676 6.00959 5.98343 6.01989 6.0012C6.10975 6.15834 6.48881 6.8219 6.54962 6.93002C6.56101 6.95028 6.57781 6.97929 6.59786 7.0141C6.69932 7.18998 6.88598 7.51353 6.90105 7.59975C6.92566 7.73953 6.9378 7.87178 6.90105 7.98936L6.1169 9.84063C6.11245 9.85182 6.10573 9.86206 6.09706 9.87036L5.84244 10.1215C5.83181 10.132 5.829 10.1482 5.83528 10.1617L5.96601 10.3551C5.98531 10.3814 6.01251 10.4007 6.04373 10.4104L6.53055 10.5573C6.5338 10.5584 6.53694 10.56 6.53976 10.5617C6.54052 10.5621 6.54637 10.5652 6.55234 10.5735C6.55331 10.5747 6.55385 10.5758 6.55461 10.577C6.55505 10.5776 6.55537 10.5782 6.5557 10.5788C6.55656 10.5801 6.55732 10.5816 6.55797 10.5832L6.5583 10.5837V10.5839C6.56144 10.5911 6.56415 10.5999 6.56545 10.6117C6.56588 10.6144 6.56621 10.6173 6.56621 10.6202V10.6216V10.6312C6.56599 10.6326 6.56599 10.6341 6.56599 10.6355L6.56545 10.6422C6.55927 10.7011 6.51797 10.7469 6.48231 10.7841C6.46334 10.8038 6.43407 10.8216 6.38887 10.8376C6.38595 10.8388 6.38313 10.8397 6.3802 10.8407C6.31516 10.8627 6.21955 10.8818 6.07983 10.8996C6.07083 10.9007 6.05695 10.9021 6.04882 10.9025C6.0059 10.9042 5.93338 10.9052 5.93208 10.9052H5.93122L4.883 10.8994C4.86935 10.8994 4.8584 10.8878 4.85916 10.8741L4.92083 10.427C4.92333 10.3812 4.93948 10.3481 4.95487 10.3168C4.97005 10.2858 4.98436 10.2565 4.98382 10.2181L5.15346 9.60625C5.15649 9.58501 5.16159 9.56378 5.16809 9.54331L5.35551 8.66236L5.77978 7.91637C5.78878 7.90035 5.78358 7.87988 5.76775 7.87024C5.75139 7.86025 5.7283 7.8487 5.70337 7.8363C5.65459 7.81195 5.59919 7.78435 5.57589 7.75903C5.44874 7.62002 5.15747 7.19818 5.09883 7.11246C5.07119 7.07218 5.03205 7.00993 4.99108 6.94455C4.92691 6.8423 4.85797 6.73241 4.82014 6.68696C4.80182 6.66494 4.77211 6.65626 4.74491 6.66514L4.70014 6.67962C4.68193 6.6856 4.66708 6.69873 4.65884 6.71591L3.95089 8.27895C3.92444 8.33416 3.87176 8.41756 3.83296 8.46486L2.34736 10.2105L2.35842 10.291L2.31614 10.8258C2.31462 10.8922 2.26107 10.9542 2.21284 10.9498L1.43367 10.9486L1.3953 10.872L1.38251 10.8428C1.37752 10.8314 1.37796 10.8185 1.3837 10.8075L1.64039 10.3584C1.65643 10.3275 1.67031 10.1742 1.66955 10.1395L1.61513 10.0424C1.61416 10.0032 1.62901 9.94392 1.64754 9.90955L2.41381 8.29111C2.48286 8.16273 2.6241 7.97873 2.72957 7.87795L2.95959 7.70208C2.96599 7.69571 2.97076 7.68798 2.97325 7.67929L3.0385 7.30475C3.04143 7.28815 3.04349 7.27155 3.04512 7.25494L3.12772 6.31107C3.13075 6.2765 3.1597 6.24967 3.19449 6.24967L3.3327 6.2489C3.34419 6.2489 3.35449 6.24137 3.35774 6.23017L3.60402 5.59866C3.605 5.59538 3.60619 5.59209 3.60749 5.58901C3.60998 5.5834 3.61421 5.57838 3.61887 5.57433L3.79783 5.4166C3.80239 5.40869 3.80574 5.39999 3.80748 5.39111L3.94233 4.99244C3.9445 4.98356 3.94136 4.9741 3.93431 4.96811L3.676 4.80652C3.66635 4.79533 3.66266 4.77524 3.66884 4.76193L4.03891 3.71302C4.04509 3.6997 4.0607 3.68791 4.07533 3.68791L4.31327 3.68714C4.32508 3.68773 4.33614 3.68116 4.34145 3.67073C4.34145 3.67073 4.38361 3.57942 4.63965 3.03151C4.90046 2.47356 5.25416 2.27952 5.41307 2.27316C5.49773 2.26968 5.66954 2.26524 5.66954 2.26524C5.67973 2.26524 5.68862 2.25848 5.69133 2.24864L5.77198 2.11485L5.62596 2.05171C5.61512 2.04322 5.60852 2.03028 5.60852 2.01638L5.58748 1.61153C5.58748 1.604 5.60298 1.52176 5.60645 1.515L5.64624 1.42735C5.67865 1.3648 5.72016 1.30746 5.77046 1.25842C5.88374 1.14799 6.09609 1.00956 6.42009 1.06111C7.0862 1.16729 7.22441 1.64223 7.24132 1.71327C7.24272 1.71887 7.24673 1.72331 7.25215 1.72544L7.34559 1.76038C7.3547 1.76366 7.3599 1.77332 7.35773 1.78278L7.25714 2.19072C7.25432 2.2023 7.24348 2.21003 7.23156 2.20906L7.09356 2.19593C7.08132 2.19362 7.07015 2.20327 7.07037 2.21562L7.07579 2.2886C7.076 2.29922 7.08468 2.30772 7.0953 2.30772H9.79387C9.79712 2.30772 9.80005 2.30617 9.80189 2.30347C9.81848 2.27946 9.83994 2.24812 9.85826 2.22143C9.87788 2.19297 9.8937 2.16978 9.89609 2.16639C9.90519 2.15326 9.91907 2.14477 9.93468 2.14477C9.96178 2.14477 9.98335 2.16967 9.98335 2.20057L9.98314 2.22199C9.98281 2.26435 9.98216 2.34815 9.98183 2.37548Z" stroke="#E4E8EE" stroke-width="1.6" stroke-linejoin="round" mask="url(#path-1-outside-1_2436_65)"/>
</svg>
