<svg width="24" height="24" viewBox="0 0 24 24" fill="none" xmlns="http://www.w3.org/2000/svg">
<path fill-rule="evenodd" clip-rule="evenodd" d="M22.4927 6.1298C22.1792 5.95229 21.7944 5.95715 21.4855 6.14251L11.4855 12.1425C11.1843 12.3232 11 12.6487 11 13V23C11 23.3603 11.1938 23.6927 11.5073 23.8702C11.8208 24.0477 12.2056 24.0429 12.5145 23.8575L22.5145 17.8575C22.8157 17.6768 23 17.3513 23 17V7C23 6.63973 22.8062 6.30731 22.4927 6.1298ZM21 8.76619V16.4338L13 21.2338V13.5662L21 8.76619Z" fill="#90969C"/>
<path fill-rule="evenodd" clip-rule="evenodd" d="M11.4855 0.142507C11.8022 -0.0475024 12.1978 -0.0475024 12.5145 0.142507L22.5145 6.14251C22.8157 6.32323 23 6.64874 23 7C23 7.35126 22.8157 7.67677 22.5145 7.85749L12.5145 13.8575C12.1978 14.0475 11.8022 14.0475 11.4855 13.8575L7.31959 11.3579L7.10289 10.4501C7.06182 10.2781 6.88299 10.1708 6.84192 10.2935L6.62521 10.9413L1.4855 7.85749C1.1843 7.67677 1 7.35126 1 7C1 6.64874 1.1843 6.32323 1.4855 6.14251L11.4855 0.142507ZM12 11.8338L20.0563 7L12 2.16619L3.94365 7L12 11.8338Z" fill="#90969C"/>
<path fill-rule="evenodd" clip-rule="evenodd" d="M2.5145 6.14251C2.20556 5.95715 1.82081 5.95229 1.5073 6.1298C1.19379 6.30731 1 6.63973 1 7V17C1 17.3513 1.1843 17.6768 1.4855 17.8575L11.4855 23.8575C11.7944 24.0429 12.1792 24.0477 12.4927 23.8702C12.8062 23.6927 13 23.3603 13 23V13C13 12.6487 12.8157 12.3232 12.5145 12.1425L2.5145 6.14251ZM7.10289 10.4501C7.06182 10.2781 6.88299 10.1708 6.84192 10.2935L6.01367 12.7693C5.9953 12.8242 5.94262 12.8373 5.88319 12.8016L3.20291 11.1934C3.07 11.1137 3.01474 11.2789 3.12227 11.4345L5.29066 14.5728C5.33874 14.6424 5.35886 14.7266 5.3405 14.7816L4.51225 17.2573C4.47118 17.3801 4.61585 17.5895 4.72337 17.5629L6.89176 17.0267C6.93985 17.0148 7.00496 17.0539 7.05305 17.1234L9.22143 20.2617C9.32896 20.4173 9.47363 20.3816 9.43256 20.2095L8.60431 16.7398C8.58594 16.6629 8.60607 16.6028 8.65415 16.5909L10.8225 16.0546C10.9301 16.0281 10.8748 15.7966 10.7419 15.7168L8.06162 14.1087C8.00218 14.073 7.94951 13.9967 7.93114 13.9198L7.10289 10.4501Z" fill="#90969C"/>
</svg>
