<svg width="12" height="12" viewBox="0 0 12 12" fill="none" xmlns="http://www.w3.org/2000/svg">
<g clip-path="url(#clip0_458_403)">
<path fill-rule="evenodd" clip-rule="evenodd" d="M1.5 5.99999C1.5 3.51471 3.51472 1.5 6 1.5C8.48528 1.5 10.5 3.51471 10.5 5.99999C10.5 8.48526 8.48528 10.5 6 10.5C3.51472 10.5 1.5 8.48526 1.5 5.99999ZM6 0.5C2.96244 0.5 0.5 2.96243 0.5 5.99999C0.5 9.03754 2.96244 11.5 6 11.5C9.03756 11.5 11.5 9.03754 11.5 5.99999C11.5 2.96243 9.03756 0.5 6 0.5ZM5.28566 8.4928L9.21064 4.56783L8.50353 3.86072L5.28566 7.07859L3.49635 5.28929L2.78925 5.99639L5.28566 8.4928Z" fill="#959595"/>
</g>
<defs>
<clipPath id="clip0_458_403">
<rect width="12" height="12" fill="white"/>
</clipPath>
</defs>
</svg>
