<svg width="12" height="12" viewBox="0 0 12 12" fill="none" xmlns="http://www.w3.org/2000/svg">
<g clip-path="url(#clip0_458_2302)">
<path fill-rule="evenodd" clip-rule="evenodd" d="M1.5 5.99999C1.5 3.51471 3.51472 1.5 6 1.5C8.48528 1.5 10.5 3.51471 10.5 5.99999C10.5 8.48526 8.48528 10.5 6 10.5C3.51472 10.5 1.5 8.48526 1.5 5.99999ZM6 0.5C2.96244 0.5 0.5 2.96243 0.5 5.99999C0.5 9.03754 2.96244 11.5 6 11.5C9.03756 11.5 11.5 9.03754 11.5 5.99999C11.5 2.96243 9.03756 0.5 6 0.5ZM8.49636 4.41071L6.70706 6.2L8.49636 7.9893L7.78926 8.69641L5.99995 6.90711L4.21065 8.69641L3.50354 7.9893L5.29284 6.20001L3.50354 4.41071L4.21065 3.7036L5.99995 5.4929L7.78925 3.7036L8.49636 4.41071Z" fill="#959595"/>
</g>
<defs>
<clipPath id="clip0_458_2302">
<rect width="12" height="12" fill="white"/>
</clipPath>
</defs>
</svg>
