<svg width="14" height="14" viewBox="0 0 14 14" fill="none" xmlns="http://www.w3.org/2000/svg">
<path fill-rule="evenodd" clip-rule="evenodd" d="M14 5.77272C14 5.16819 13.7455 4.59541 13.3 4.18184L11.4863 1H2.48183L0.668181 4.18184C0.25452 4.59541 0 5.16819 0 5.77272C0 6.82272 0.73183 7.7136 1.71818 7.93637C1.68636 7.99996 1.68636 8.06361 1.68636 8.12726V13.0909H12.25V8.12726C12.25 8.06361 12.25 7.99996 12.2182 7.96819C13.2363 7.74542 14 6.85455 14 5.77272ZM10.9773 11.8181H2.95907V8.12726C2.95907 8.03179 2.92725 7.96819 2.92725 7.90455C3.27724 7.77725 3.59543 7.58638 3.85002 7.33178C4.26359 7.74542 4.80455 7.99996 5.4409 7.99996C6.07726 7.99996 6.6182 7.74542 7.03179 7.33178C7.44543 7.74542 7.98639 7.99996 8.62274 7.99996C9.2591 7.99996 9.79997 7.74542 10.2136 7.33178C10.4363 7.55455 10.7227 7.74542 11.0409 7.87272C11.0091 7.93637 10.9773 8.03179 10.9773 8.12726V11.8181ZM11.7727 6.72725C11.2636 6.72725 10.8182 6.31359 10.8182 5.80455V5.07272H9.51362V5.7409C9.51362 6.28184 9.09996 6.69542 8.5591 6.69542C8.04996 6.69542 7.60457 6.28184 7.60457 5.77272V5.04089H6.30003V5.70907C6.30003 6.25001 5.88637 6.6636 5.34543 6.6636C4.83637 6.6636 4.39091 6.25001 4.39091 5.7409V5.00907H3.08637V5.67725C3.08637 6.21819 2.67271 6.63178 2.13184 6.63178C1.59088 6.63178 1.1773 6.21819 1.1773 5.67725C1.1773 5.39089 1.30454 5.16819 1.49548 4.97724L1.55906 4.91367L3.11819 2.1773H10.6273L12.1863 4.88185L12.2818 4.94542C12.5045 5.13637 12.6318 5.39089 12.6318 5.67725C12.7273 6.28184 12.3136 6.72725 11.7727 6.72725Z" fill="#4773C8"/>
</svg>
