<svg width="14" height="14" viewBox="0 0 14 14" fill="none" xmlns="http://www.w3.org/2000/svg">
<path fill-rule="evenodd" clip-rule="evenodd" d="M4.47916 7.10922C4.47916 5.73609 5.59646 4.61877 6.96959 4.61877C8.34272 4.61877 9.46004 5.73609 9.46004 7.10922C9.46004 8.48257 8.34272 9.59942 6.96959 9.59942C5.59648 9.59942 4.47916 8.48257 4.47916 7.10922ZM6.96959 8.584C7.78309 8.584 8.44467 7.92244 8.44467 7.10922C8.44467 6.29646 7.78309 5.63466 6.96959 5.63464C6.1561 5.63464 5.49501 6.29646 5.49501 7.10922C5.49501 7.92244 6.1561 8.584 6.96959 8.584Z" fill="#4773C8"/>
<path fill-rule="evenodd" clip-rule="evenodd" d="M13.1554 5.02354C13.5007 5.02354 13.7704 5.30783 13.8536 5.74746C13.8595 5.7784 14 6.52237 14 7.11892C14 7.71466 13.8595 8.45837 13.8536 8.48907C13.7704 8.92898 13.5002 9.21351 13.1653 9.21351H13.0955C12.1622 9.21351 11.4032 9.97258 11.4032 10.9058C11.4032 11.1986 11.5395 11.5247 11.5506 11.5513L11.5511 11.5525C11.7228 11.9387 11.5902 12.4128 11.2419 12.6562L11.2156 12.6731L9.43427 13.6548C9.32145 13.7032 9.19825 13.729 9.06812 13.729C8.78953 13.729 8.51737 13.6122 8.34025 13.4182C8.14825 13.2065 7.48169 12.6037 6.96412 12.6037C6.48664 12.6037 5.83642 13.1421 5.59645 13.4014C5.33666 13.6855 4.85619 13.7874 4.50091 13.631L4.47468 13.6191L2.75666 12.6552C2.40931 12.4128 2.27768 11.9387 2.44937 11.5505C2.45524 11.5367 2.59683 11.2022 2.59683 10.9058C2.59683 9.97256 1.83777 9.21349 0.90455 9.21349H0.844667C0.49929 9.21349 0.229605 8.92896 0.146481 8.48905C0.140286 8.45836 0 7.71465 0 7.1189C0 6.52239 0.140286 5.77842 0.146481 5.74748C0.229605 5.30783 0.49929 5.02356 0.833796 5.02356H0.90455C1.83777 5.02356 2.59683 4.26451 2.59683 3.33101C2.59683 3.03619 2.45861 2.70764 2.4492 2.68527C2.27798 2.29931 2.41027 1.82379 2.75863 1.58108L2.78585 1.56375L4.59937 0.570147C4.95366 0.418484 5.42821 0.521396 5.68898 0.79553C5.87897 0.994199 6.53213 1.56128 7.03588 1.56128C7.53317 1.56128 8.18487 1.00535 8.37391 0.810378C8.63513 0.538233 9.11463 0.440993 9.46497 0.592917L9.4907 0.605515L11.2419 1.58056C11.5902 1.82424 11.7223 2.29904 11.5501 2.68648L11.5496 2.68778C11.5387 2.71422 11.4032 3.04241 11.4032 3.331C11.4032 4.26449 12.1622 5.02354 13.0955 5.02354H13.1554ZM12.8728 8.2065C12.9079 7.99967 12.9847 7.50434 12.9847 7.11888C12.9847 6.73514 12.9079 6.23757 12.8728 6.03027C11.4729 5.91572 10.3878 4.74571 10.3878 3.33101C10.3878 2.9302 10.5145 2.54771 10.5823 2.37304L9.08345 1.54051C9.07973 1.54402 9.07549 1.54804 9.07073 1.55254C8.99322 1.62594 8.77974 1.82807 8.49116 2.03087C7.97704 2.39308 7.48766 2.57666 7.0359 2.57666C6.57969 2.57666 6.08682 2.38961 5.56923 2.02023C5.26541 1.80399 5.04324 1.58652 4.97545 1.51872L3.41824 2.37452C3.48554 2.55019 3.61222 2.93392 3.61222 3.33101C3.61222 4.74571 2.52707 5.91572 1.12772 6.03027C1.09209 6.2371 1.01538 6.73266 1.01538 7.11888C1.01538 7.50436 1.09209 7.99967 1.12772 8.2065C2.52707 8.3213 3.61222 9.49107 3.61222 10.9058C3.61222 11.3021 3.48899 11.6797 3.41773 11.8645L4.87943 12.6829C4.95565 12.6027 5.17336 12.386 5.47223 12.1683C5.99724 11.7823 6.49897 11.5876 6.9641 11.5876C7.4332 11.5876 7.93893 11.7873 8.46642 12.1782C8.76676 12.4019 8.98745 12.6245 9.06218 12.7027L10.5818 11.8635C10.5145 11.6876 10.3878 11.3051 10.3878 10.9058C10.3878 9.49107 11.4729 8.3213 12.8728 8.2065Z" fill="#4773C8"/>
</svg>
