<svg width="16" height="16" viewBox="0 0 16 16" fill="none" xmlns="http://www.w3.org/2000/svg">
<path fill-rule="evenodd" clip-rule="evenodd" d="M13.5152 0.5H5.0303C4.21024 0.5 3.54545 1.13527 3.54545 1.91892V2.93243H2.48485C1.66479 2.93243 1 3.5677 1 4.35135V14.0811C1 14.8647 1.66479 15.5 2.48485 15.5H10.9697C11.7898 15.5 12.4545 14.8647 12.4545 14.0811L12.4545 13.0676H13.5152C14.3352 13.0676 15 12.4323 15 11.6486V1.91892C15 1.13527 14.3352 0.5 13.5152 0.5ZM10.9697 2.93243H4.81818V1.91892C4.81818 1.80697 4.91315 1.71622 5.0303 1.71622H13.5152C13.6323 1.71622 13.7273 1.80697 13.7273 1.91892V11.6486C13.7273 11.7606 13.6323 11.8514 13.5152 11.8514H12.4545L12.4545 4.35135C12.4545 3.5677 11.7898 2.93243 10.9697 2.93243ZM10.9697 4.14865H2.48485C2.3677 4.14865 2.27273 4.2394 2.27273 4.35135V14.0811C2.27273 14.193 2.3677 14.2838 2.48485 14.2838H10.9697C11.0868 14.2838 11.1818 14.193 11.1818 14.0811V4.35135C11.1818 4.2394 11.0868 4.14865 10.9697 4.14865ZM9.69697 5.32432C9.97813 5.32432 10.2061 5.54213 10.2061 5.81081C10.2061 6.05262 10.0214 6.25323 9.77955 6.29093L9.69697 6.2973H3.75758C3.47641 6.2973 3.24848 6.07949 3.24848 5.81081C3.24848 5.569 3.43311 5.36839 3.675 5.33069L3.75758 5.32432H9.69697ZM10.2061 8.24324C10.2061 7.97456 9.97813 7.75676 9.69697 7.75676H3.75758L3.675 7.76312C3.43311 7.80083 3.24848 8.00143 3.24848 8.24324C3.24848 8.51192 3.47641 8.72973 3.75758 8.72973H9.69697L9.77955 8.72336C10.0214 8.68566 10.2061 8.48505 10.2061 8.24324ZM7.66061 10.6757C7.66061 10.407 7.43268 10.1892 7.15152 10.1892H3.75758L3.675 10.1956C3.43311 10.2333 3.24848 10.4339 3.24848 10.6757C3.24848 10.9444 3.47641 11.1622 3.75758 11.1622H7.15152L7.23409 11.1558C7.47598 11.1181 7.66061 10.9175 7.66061 10.6757Z" fill="#959595"/>
</svg>
