<svg width="16" height="16" viewBox="0 0 16 16" fill="none" xmlns="http://www.w3.org/2000/svg">
<circle cx="8" cy="8" r="7.4" stroke="#959595" stroke-width="1.2"/>
<path fill-rule="evenodd" clip-rule="evenodd" d="M10.0506 10.7577C10.2849 10.992 10.6648 10.992 10.8991 10.7577C11.1334 10.5234 11.1334 10.1435 10.8991 9.90919L8.98994 8L10.8991 6.09081C11.1334 5.8565 11.1334 5.4766 10.8991 5.24228C10.6648 5.00797 10.2849 5.00797 10.0506 5.24228L8.14142 7.15147L6.09081 5.10086C5.85649 4.86655 5.47659 4.86655 5.24228 5.10086C5.00796 5.33518 5.00796 5.71508 5.24228 5.94939L7.29289 8L5.24228 10.0506C5.00796 10.2849 5.00796 10.6648 5.24228 10.8991C5.47659 11.1335 5.85649 11.1335 6.09081 10.8991L8.14142 8.84853L10.0506 10.7577Z" fill="#959595"/>
</svg>
