<svg width="16" height="16" viewBox="0 0 16 16" fill="none" xmlns="http://www.w3.org/2000/svg">
<path fill-rule="evenodd" clip-rule="evenodd" d="M8.19431 1.70793C8.0735 1.64081 7.9266 1.64081 7.80579 1.70793L1.11475 5.42518C0.977587 5.50138 0.977587 5.69864 1.11475 5.77484L7.80579 9.49209C7.9266 9.5592 8.0735 9.5592 8.19431 9.49209L14.8854 5.77484C15.0225 5.69864 15.0225 5.50138 14.8854 5.42518L8.19431 1.70793ZM2.24002 7.19999L7.80576 10.2921C7.92657 10.3592 8.07346 10.3592 8.19427 10.2921L13.76 7.19999L14.8853 7.82516C15.0225 7.90136 15.0225 8.09862 14.8853 8.17482L8.19427 11.8921C8.07346 11.9592 7.92657 11.9592 7.80576 11.8921L1.11471 8.17482C0.97755 8.09862 0.97755 7.90136 1.11471 7.82516L2.24002 7.19999ZM7.80576 12.6921L2.24002 9.59999L1.11471 10.2252C0.97755 10.3014 0.97755 10.4986 1.11471 10.5748L7.80576 14.2921C7.92657 14.3592 8.07346 14.3592 8.19427 14.2921L14.8853 10.5748C15.0225 10.4986 15.0225 10.3014 14.8853 10.2252L13.76 9.59999L8.19427 12.6921C8.07346 12.7592 7.92657 12.7592 7.80576 12.6921Z" fill="#EEA20E"/>
</svg>
