<svg width="24" height="24" viewBox="0 0 24 24" fill="none" xmlns="http://www.w3.org/2000/svg">
<path d="M16.7829 5.66862L12.9195 5.66378V3.59375H19.3853C19.8874 3.59375 20.3063 3.94992 20.4032 4.42341C20.4086 4.44942 20.4129 4.47579 20.4162 4.50247C20.4216 4.54516 20.4243 4.58867 20.4243 4.63281V11.0986H18.3462V7.04281L12.2571 13.2304L10.7759 11.7728L16.7829 5.66862Z" fill="white"/>
<path d="M9.81734 6.25073V4.1726H5.68298L5.50474 4.17887C4.2095 4.27033 3.1875 5.35077 3.1875 6.66965V18.3335L3.19376 18.5118C3.28513 19.8075 4.36445 20.8306 5.68298 20.8306H17.3375L17.5155 20.8243C18.8088 20.7331 19.8301 19.6558 19.8329 18.3389L19.8455 14.4489L17.7674 14.4422L17.7548 18.3333L17.7462 18.4181C17.7069 18.6095 17.5386 18.7525 17.3375 18.7525H5.68298L5.59894 18.744C5.40888 18.7049 5.26562 18.5362 5.26562 18.3335V6.66965L5.27411 6.58515C5.31308 6.39414 5.48151 6.25073 5.68298 6.25073H9.81734Z" fill="white"/>
</svg>
