<svg width="16" height="16" viewBox="0 0 16 16" fill="none" xmlns="http://www.w3.org/2000/svg">
<g clip-path="url(#clip0_265_4605)">
<path d="M7.04738 11.3237L12.2807 6.09044L11.3379 5.14763L7.04738 9.43812L4.66164 7.05239L3.71883 7.9952L7.04738 11.3237Z" fill="#C0C0C0"/>
<path fill-rule="evenodd" clip-rule="evenodd" d="M7.99984 0.666672C3.94975 0.666672 0.666504 3.94991 0.666504 7.99998C0.666504 12.0501 3.94975 15.3333 7.99984 15.3333C12.0499 15.3333 15.3332 12.0501 15.3332 7.99998C15.3332 3.94991 12.0499 0.666672 7.99984 0.666672ZM1.99984 7.99998C1.99984 4.68629 4.68613 2.00001 7.99984 2.00001C11.3135 2.00001 13.9998 4.68629 13.9998 7.99998C13.9998 11.3137 11.3135 14 7.99984 14C4.68613 14 1.99984 11.3137 1.99984 7.99998Z" fill="#C0C0C0"/>
</g>
<defs>
<clipPath id="clip0_265_4605">
<rect width="16" height="16" fill="white"/>
</clipPath>
</defs>
</svg>
