<?xml version="1.0" encoding="UTF-8"?>
<svg width="16px" height="16px" viewBox="0 0 16 16" version="1.1" xmlns="http://www.w3.org/2000/svg" xmlns:xlink="http://www.w3.org/1999/xlink">
    <title>icon_goodsdetail_16_bargainednum</title>
    <g id="控件" stroke="none" stroke-width="1" fill="none" fill-rule="evenodd">
        <g id="icon_goodsdetail_16_bargainednum" fill="#959595" fill-rule="nonzero">
            <path d="M12.311389,6.82981433 L13.7742695,8.29269481 C14.0597961,8.57820617 14.0597961,9.04278612 13.7742999,9.32832792 L9.32834314,13.7742543 C9.18558746,13.9170099 8.99801136,13.9883878 8.81051136,13.9883878 C8.62296571,13.9883878 8.43546571,13.9170404 8.29271002,13.7742543 L6.81836952,12.2999138 C6.64006189,12.1216061 6.64006189,11.8325335 6.81836952,11.6542259 C6.99666193,11.475903 7.28576502,11.475903 7.46405743,11.6542259 L8.8105418,13.000695 L13.0007102,8.81052658 L11.6657011,7.47550223 C11.4873935,7.2971946 11.4873935,7.00812196 11.6657011,6.82981433 C11.8439935,6.65149148 12.1330966,6.65149148 12.311389,6.82981433 Z M12.6852932,4.22112926 C12.8636009,4.39943689 12.8636009,4.68850954 12.6852932,4.86681717 L4.86683239,12.685278 C4.77767857,12.774447 4.66084111,12.8190087 4.54398843,12.8190087 C4.42713575,12.8190087 4.3102983,12.7744318 4.22114448,12.685278 C4.04283685,12.5069704 4.04283685,12.2178977 4.22114448,12.0395901 L12.0396053,4.22112926 C12.2178977,4.04280641 12.5070008,4.04280641 12.6852932,4.22112926 Z M7.69998478,2.21845576 L10.2112064,4.72966213 C10.389514,4.90796976 10.389514,5.19704241 10.2112064,5.37535004 C10.032914,5.55367289 9.74381088,5.55367289 9.56551847,5.37535004 L7.11590402,2.92573559 L3.34590605,3.34590605 L2.92573559,7.11591924 L5.38679485,9.57697849 C5.56510248,9.75528612 5.56510248,10.0443588 5.38679485,10.2226664 C5.29764103,10.3118202 5.18080357,10.3563971 5.06395089,10.3563971 C4.94709821,10.3563971 4.83026075,10.3118202 4.74110694,10.2226664 L2.21844054,7.7 C2.05845678,7.54001623 1.9809304,7.31168324 2.0100903,7.08759639 L2.4553267,3.09268973 L2.45706169,3.07899249 L2.45706169,3.07899249 C2.50264306,2.75841619 2.75840097,2.50265828 3.07897727,2.45707691 L3.09267451,2.45534192 L3.09267451,2.45534192 L7.08758117,2.01010552 C7.31166802,1.98096084 7.54003145,2.05850244 7.69998478,2.21845576 Z M5.71204343,4.35769075 C6.45881696,4.35769075 7.06638088,4.96525467 7.06638088,5.71204343 C7.06638088,6.45881696 6.45881696,7.06638088 5.71204343,7.06638088 C4.96526989,7.06638088 4.35770597,6.45881696 4.35770597,5.71204343 C4.35770597,4.96525467 4.96526989,4.35769075 5.71204343,4.35769075 Z M5.71204343,5.11864854 C5.38484679,5.11864854 5.11866376,5.38484679 5.11866376,5.71204343 C5.11866376,6.03924006 5.38484679,6.30542309 5.71204343,6.30542309 C6.03924006,6.30542309 6.30542309,6.03924006 6.30542309,5.71204343 C6.30542309,5.38484679 6.03924006,5.11864854 5.71204343,5.11864854 Z" id="形状结合"></path>
        </g>
    </g>
</svg>