<svg width="24" height="24" viewBox="0 0 24 24" fill="none" xmlns="http://www.w3.org/2000/svg">
<path d="M2 12C2 6.47715 6.47715 2 12 2C17.5228 2 22 6.47715 22 12C22 12.6849 21.9311 13.3538 21.8 14H19.748C19.9125 13.3608 20 12.6906 20 12C20 7.58172 16.4183 4 12 4C7.58172 4 4 7.58172 4 12C4 16.4183 7.58172 20 12 20C12.6906 20 13.3608 19.9125 14 19.748V21.8C13.3538 21.9311 12.6849 22 12 22C6.47715 22 2 17.5228 2 12Z" fill="#E4E8EE"/>
<path d="M18.7503 22.0517L23.6001 17.2018L22.3983 16L18.7503 19.6481L16.8019 17.6996L15.6001 18.9014L18.7503 22.0517Z" fill="#E4E8EE"/>
<path d="M15.4999 13.05C15.7761 13.05 15.9999 13.2689 15.9999 13.5389C15.9999 15.6989 14.2091 17.45 12 17.45C9.87928 17.45 8.1361 15.8335 8.00745 13.7736L8.00217 13.6648L8.00007 13.5472C7.99572 13.2911 8.19337 13.0782 8.44835 13.0526L8.50006 13.05H15.4999Z" fill="#E4E8EE"/>
<path d="M8 9C8 8.44772 8.44772 8 9 8C9.55228 8 10 8.44772 10 9V10C10 10.5523 9.55228 11 9 11C8.44772 11 8 10.5523 8 10V9Z" fill="#E4E8EE"/>
<path d="M14 9C14 8.44772 14.4477 8 15 8C15.5523 8 16 8.44772 16 9V10C16 10.5523 15.5523 11 15 11C14.4477 11 14 10.5523 14 10V9Z" fill="#E4E8EE"/>
</svg>
