<?xml version="1.0" encoding="UTF-8"?>
<svg width="16px" height="16px" viewBox="0 0 16 16" version="1.1" xmlns="http://www.w3.org/2000/svg" xmlns:xlink="http://www.w3.org/1999/xlink">
    <title>icon_goodsdetail_16_viewed</title>
    <g id="控件" stroke="none" stroke-width="1" fill="none" fill-rule="evenodd">
        <g id="icon_goodsdetail_16_viewed" fill="#959595" fill-rule="nonzero">
            <path d="M7.98960888,3.01144239 C11.4540529,3.01144239 14.7009029,4.85690301 15.8852457,7.49928783 L15.8852457,7.49928783 L15.9770297,7.70395337 L15.8852457,7.9086189 C14.8744149,10.1639221 11.8378087,12.4468452 7.98960888,12.4468452 C4.14140902,12.4468452 1.10480284,10.1639221 0.0939903214,7.9086189 L0.0939903214,7.9086189 L0.00220632143,7.70395337 L0.0939903214,7.49928783 C1.27833311,4.85690301 4.52516489,3.01144239 7.98960888,3.01144239 Z M7.98960888,4.01303215 C4.67421334,4.01303215 2.06615802,5.83722975 1.10723455,7.70420912 C2.07546441,9.59588572 4.68695705,11.4452555 7.98960888,11.4452555 C11.292279,11.4452555 13.9037534,9.5958857 14.8719832,7.70420912 C13.9130597,5.83722975 11.3050044,4.01303215 7.98960888,4.01303215 Z M7.98960888,5.06377887 C9.44661598,5.06377887 10.6321838,6.24827796 10.6321838,7.70420912 C10.6321838,9.15988453 9.4465977,10.3444019 7.98960888,10.3444019 C6.53262005,10.3444019 5.34705227,9.15988455 5.34705227,7.70420912 C5.34705227,6.24827794 6.53262005,5.06377887 7.98960888,5.06377887 Z M7.98960888,6.06536863 C7.08526218,6.06536863 6.34954571,6.80067762 6.34954571,7.70420912 C6.34954571,8.6077406 7.08526216,9.34279386 7.98960888,9.34279386 C8.89397388,9.34279386 9.62967205,8.60774062 9.62967205,7.70420912 C9.62967205,6.80067762 8.89395559,6.06536863 7.98960888,6.06536863 Z" id="形状结合"></path>
        </g>
    </g>
</svg>