<?xml version="1.0" encoding="UTF-8"?>
<svg width="16px" height="16px" viewBox="0 0 16 16" version="1.1" xmlns="http://www.w3.org/2000/svg" xmlns:xlink="http://www.w3.org/1999/xlink">
    <title>icon_goodsdetail_16_spread_normal</title>
    <g id="控件" stroke="none" stroke-width="1" fill="none" fill-rule="evenodd">
        <g id="icon_goodsdetail_16_spread_normal" fill="#959595" fill-rule="nonzero">
            <path d="M13.0555556,1.5 C13.8521667,1.5 14.5,2.14783333 14.5,2.94444444 L14.5,2.94444444 L14.5,13.0555556 C14.5,13.8521667 13.8521667,14.5 13.0555556,14.5 L13.0555556,14.5 L2.94444444,14.5 C2.14783333,14.5 1.5,13.8521667 1.5,13.0555556 L1.5,13.0555556 L1.5,2.94444444 C1.5,2.14783333 2.14783333,1.5 2.94444444,1.5 L2.94444444,1.5 Z M13.1985145,2.8 L2.8,2.8 L2.8,13.2 L13.2,13.2 L13.1985145,2.8 Z M5.83666667,7.4 L5.93666667,7.5 L5.93733333,10.0673333 L8.50333333,10.0666667 L8.60333333,10.1666667 L8.60333333,11.2333333 L8.50333333,11.3333333 L4.77,11.3333333 L4.67,11.2333333 L4.67,7.5 L4.77,7.4 L5.83666667,7.4 Z M11.2333333,4.67 L11.3333333,4.77 L11.3333333,8.50333333 L11.2333333,8.60333333 L10.1666667,8.60333333 L10.0666667,8.50333333 L10.066,5.936 L7.5,5.93666667 L7.4,5.83666667 L7.4,4.77 L7.5,4.67 L11.2333333,4.67 Z" id="形状结合"></path>
        </g>
    </g>
</svg>