<?xml version="1.0" encoding="UTF-8"?>
<svg width="16px" height="16px" viewBox="0 0 16 16" version="1.1" xmlns="http://www.w3.org/2000/svg" xmlns:xlink="http://www.w3.org/1999/xlink">
    <title>icon_goodsdetail_16_share_normal</title>
    <g id="控件" stroke="none" stroke-width="1" fill="none" fill-rule="evenodd">
        <g id="icon_goodsdetail_16_share_normal" fill="#959595" fill-rule="nonzero">
            <path d="M6.58983633,2.41048195 L6.58983633,3.66098589 L3.65804285,3.66098589 C3.45810773,3.66098589 3.29160677,3.80542698 3.25707489,3.99614048 L3.25050394,4.06963533 L3.25050394,12.3408466 C3.25050394,12.5415943 3.39478988,12.7083407 3.58482686,12.7429171 L3.65804285,12.7494961 L11.9225886,12.7494961 C12.1222194,12.7494961 12.2885736,12.6054782 12.323418,12.4146295 L12.3301284,12.3410558 L12.3390174,9.58176197 L13.5895148,9.58579041 L13.5806276,12.3444132 C13.5787479,13.2194207 12.9001479,13.9352532 12.0408404,13.9958454 L11.9225886,14 L3.65804285,14 C2.78200066,14 2.06486576,13.3202237 2.00416224,12.4593186 L2,12.3408466 L2,4.06963533 C2,3.19329424 2.67904611,2.47541619 3.53961424,2.41464861 L3.65804285,2.41048195 L6.58983633,2.41048195 Z M13.218435,2 C13.6500814,2 14,2.34991855 14,2.78156496 L14,7.09877222 L12.7494961,7.09877222 L12.749,4.117 L8.26826426,8.67121032 L7.32125379,7.73927163 L11.738,3.25 L8.90122778,3.25050394 L8.90122778,2 L13.218435,2 Z" id="形状结合"></path>
        </g>
    </g>
</svg>