<svg width="24" height="24" viewBox="0 0 24 24" fill="none" xmlns="http://www.w3.org/2000/svg">
<path fill-rule="evenodd" clip-rule="evenodd" d="M2 12C2 6.47715 6.47715 2 12 2C17.5228 2 22 6.47715 22 12C22 17.5228 17.5228 22 12 22C6.47715 22 2 17.5228 2 12ZM20 12C20 7.58172 16.4183 4 12 4C7.58172 4 4 7.58172 4 12C4 16.4183 7.58172 20 12 20C16.4183 20 20 16.4183 20 12ZM8 9C8 8.44772 8.44772 8 9 8C9.55228 8 10 8.44772 10 9V10C10 10.5523 9.55228 11 9 11C8.44772 11 8 10.5523 8 10V9ZM15 8C14.4477 8 14 8.44772 14 9V10C14 10.5523 14.4477 11 15 11C15.5523 11 16 10.5523 16 10V9C16 8.44772 15.5523 8 15 8Z" fill="#C6CAD0"/>
<path d="M15.4999 13.05C15.7761 13.05 15.9999 13.2689 15.9999 13.5389C15.9999 15.6989 14.2091 17.45 12 17.45C9.87928 17.45 8.1361 15.8335 8.00745 13.7736L8.00217 13.6648L8.00007 13.5472C7.99572 13.2911 8.19337 13.0782 8.44835 13.0526L8.50006 13.05H15.4999Z" fill="#C6CAD0"/>
</svg>
