<svg width="24" height="24" viewBox="0 0 24 24" fill="none" xmlns="http://www.w3.org/2000/svg">
<path d="M7.5 9.5C6.94772 9.5 6.5 9.94772 6.5 10.5V11.5C6.5 12.0523 6.94772 12.5 7.5 12.5C8.05228 12.5 8.5 12.0523 8.5 11.5V10.5C8.5 9.94772 8.05228 9.5 7.5 9.5Z" fill="white" fill-opacity="0.3"/>
<path d="M12 9.5C11.4477 9.5 11 9.94772 11 10.5V11.5C11 12.0523 11.4477 12.5 12 12.5C12.5523 12.5 13 12.0523 13 11.5V10.5C13 9.94772 12.5523 9.5 12 9.5Z" fill="white" fill-opacity="0.3"/>
<path d="M15.5 10.5C15.5 9.94772 15.9477 9.5 16.5 9.5C17.0523 9.5 17.5 9.94772 17.5 10.5V11.5C17.5 12.0523 17.0523 12.5 16.5 12.5C15.9477 12.5 15.5 12.0523 15.5 11.5V10.5Z" fill="white" fill-opacity="0.3"/>
<path fill-rule="evenodd" clip-rule="evenodd" d="M5 2C3.34315 2 2 3.34315 2 5V17C2 18.6569 3.34315 20 5 20H9.70539L10.6976 21.7364C11.2735 22.7441 12.7265 22.7441 13.3024 21.7364L14.2946 20H19C20.6569 20 22 18.6569 22 17V5C22 3.34315 20.6569 2 19 2H5ZM4 5C4 4.44772 4.44772 4 5 4H19C19.5523 4 20 4.44771 20 5V17C20 17.5523 19.5523 18 19 18H13.134L12 19.9844L10.866 18H5C4.44772 18 4 17.5523 4 17V5Z" fill="white" fill-opacity="0.3"/>
</svg>
