<svg width="24" height="24" viewBox="0 0 24 24" fill="none" xmlns="http://www.w3.org/2000/svg">
<path d="M9 8C8.44772 8 8 8.44772 8 9V10C8 10.5523 8.44772 11 9 11C9.55228 11 10 10.5523 10 10V9C10 8.44772 9.55228 8 9 8Z" fill="white" fill-opacity="0.3"/>
<path d="M14 9C14 8.44772 14.4477 8 15 8C15.5523 8 16 8.44772 16 9V10C16 10.5523 15.5523 11 15 11C14.4477 11 14 10.5523 14 10V9Z" fill="white" fill-opacity="0.3"/>
<path d="M15.9999 13.5389C15.9999 13.2689 15.7761 13.05 15.4999 13.05H8.50006L8.44835 13.0526C8.19337 13.0782 7.99572 13.2911 8.00007 13.5472L8.00217 13.6648L8.00745 13.7736C8.1361 15.8335 9.87928 17.45 12 17.45C14.2091 17.45 15.9999 15.6989 15.9999 13.5389Z" fill="white" fill-opacity="0.3"/>
<path fill-rule="evenodd" clip-rule="evenodd" d="M12 2C6.47715 2 2 6.47715 2 12C2 17.5228 6.47715 22 12 22C17.5228 22 22 17.5228 22 12C22 6.47715 17.5228 2 12 2ZM12 4C16.4183 4 20 7.58172 20 12C20 16.4183 16.4183 20 12 20C7.58172 20 4 16.4183 4 12C4 7.58172 7.58172 4 12 4Z" fill="white" fill-opacity="0.3"/>
</svg>
