<svg width="24" height="24" viewBox="0 0 24 24" fill="none" xmlns="http://www.w3.org/2000/svg">
<path d="M10.2857 19L11.154 18.5039L10.866 18H10.2857V19ZM11.5659 21.2403L10.6976 21.7364L11.5659 21.2403ZM12.4341 21.2403L13.3024 21.7364L12.4341 21.2403ZM13.7143 19V18H13.134L12.846 18.5039L13.7143 19ZM4 5C4 4.44772 4.44772 4 5 4V2C3.34315 2 2 3.34315 2 5H4ZM4 17V5H2V17H4ZM5 18C4.44772 18 4 17.5523 4 17H2C2 18.6569 3.34315 20 5 20V18ZM10.2857 18H5V20H10.2857V18ZM12.4341 20.7441L11.154 18.5039L9.41747 19.4961L10.6976 21.7364L12.4341 20.7441ZM11.5659 20.7441C11.7578 20.4082 12.2422 20.4082 12.4341 20.7441L10.6976 21.7364C11.2735 22.7441 12.7265 22.7441 13.3024 21.7364L11.5659 20.7441ZM12.846 18.5039L11.5659 20.7441L13.3024 21.7364L14.5825 19.4961L12.846 18.5039ZM19 18H13.7143V20H19V18ZM20 17C20 17.5523 19.5523 18 19 18V20C20.6569 20 22 18.6569 22 17H20ZM20 5V17H22V5H20ZM19 4C19.5523 4 20 4.44771 20 5H22C22 3.34315 20.6569 2 19 2V4ZM5 4H19V2H5V4Z" fill="#C6CAD0"/>
<path fill-rule="evenodd" clip-rule="evenodd" d="M6.5 10.5C6.5 9.94772 6.94772 9.5 7.5 9.5C8.05228 9.5 8.5 9.94772 8.5 10.5V11.5C8.5 12.0523 8.05228 12.5 7.5 12.5C6.94772 12.5 6.5 12.0523 6.5 11.5V10.5ZM11 10.5C11 9.94772 11.4477 9.5 12 9.5C12.5523 9.5 13 9.94772 13 10.5V11.5C13 12.0523 12.5523 12.5 12 12.5C11.4477 12.5 11 12.0523 11 11.5V10.5ZM16.5 9.5C15.9477 9.5 15.5 9.94772 15.5 10.5V11.5C15.5 12.0523 15.9477 12.5 16.5 12.5C17.0523 12.5 17.5 12.0523 17.5 11.5V10.5C17.5 9.94772 17.0523 9.5 16.5 9.5Z" fill="#C6CAD0"/>
</svg>
