<svg width="24" height="24" viewBox="0 0 24 24" fill="none" xmlns="http://www.w3.org/2000/svg">
<path fill-rule="evenodd" clip-rule="evenodd" d="M4.44652 5.44652C6.27999 3.3351 8.98408 2 12 2C17.5228 2 22 6.47715 22 12C22 15.0159 20.6649 17.72 18.5535 19.5535L17.1348 18.1348C18.8863 16.6673 20 14.4637 20 12C20 7.58172 16.4183 4 12 4C9.53627 4 7.33266 5.11371 5.86515 6.86515L4.44652 5.44652ZM3.27747 7.10582C2.46398 8.55252 2 10.2221 2 12C2 17.5228 6.47715 22 12 22C13.7779 22 15.4474 21.536 16.8941 20.7226L15.4104 19.2388C14.3758 19.727 13.2198 20 12 20C7.58172 20 4 16.4183 4 12C4 10.7802 4.27301 9.62413 4.76125 8.58961L3.27747 7.10582ZM9.22167 13.05H8.50006L8.44835 13.0526C8.19337 13.0782 7.99572 13.2911 8.00007 13.5472L8.00217 13.6648L8.00745 13.7736C8.1361 15.8335 9.87928 17.45 12 17.45C12.4857 17.45 12.9512 17.3653 13.3819 17.2103L9.22167 13.05ZM15.059 16.059C15.6461 15.3783 15.9999 14.499 15.9999 13.5389C15.9999 13.2689 15.7761 13.05 15.4999 13.05H12.05L15.059 16.059ZM9.70711 10.7071C9.88807 10.5261 10 10.2761 10 10V9C10 8.44772 9.55228 8 9 8C8.44772 8 8 8.44772 8 9L9.70711 10.7071ZM15 8C14.4477 8 14 8.44772 14 9V10C14 10.5523 14.4477 11 15 11C15.5523 11 16 10.5523 16 10V9C16 8.44772 15.5523 8 15 8Z" fill="#C6CAD0"/>
<path d="M3.22211 2.81597C3.61263 2.42546 4.24577 2.42546 4.63629 2.81597L20.8997 19.0794C21.2903 19.47 21.2903 20.1031 20.8997 20.4937C20.5092 20.8842 19.876 20.8842 19.4855 20.4936L3.22211 4.23014C2.8316 3.83963 2.8316 3.20648 3.22211 2.81597Z" fill="#C6CAD0"/>
</svg>
