<svg width="16" height="16" viewBox="0 0 16 16" fill="none" xmlns="http://www.w3.org/2000/svg">
<path fill-rule="evenodd" clip-rule="evenodd" d="M3.8 2.5L3.78405 2.5H3.78399C3.65782 2.49999 3.53495 2.49997 3.43089 2.50848C3.31659 2.51781 3.18173 2.53985 3.04601 2.609C2.85785 2.70487 2.70487 2.85785 2.609 3.04601C2.53985 3.18173 2.51781 3.31659 2.50848 3.43089C2.49997 3.53495 2.49999 3.65782 2.5 3.78399V3.78406L2.5 3.8L2.5 12.216V12.216C2.49999 12.3422 2.49997 12.4651 2.50848 12.5691C2.51781 12.6834 2.53985 12.8183 2.609 12.954C2.70487 13.1422 2.85785 13.2951 3.04601 13.391C3.18173 13.4602 3.31659 13.4822 3.43089 13.4915C3.53493 13.5 3.65778 13.5 3.78392 13.5H3.78394H3.78395H3.78397H3.78399H3.78405H7.5V12.5H3.8C3.65174 12.5 3.57061 12.4996 3.51232 12.4949L3.50573 12.4943L3.50516 12.4877C3.50039 12.4294 3.5 12.3483 3.5 12.2V3.8C3.5 3.65174 3.50039 3.57061 3.50516 3.51232L3.50573 3.50573L3.51232 3.50516C3.57061 3.50039 3.65174 3.5 3.8 3.5H12.2C12.3483 3.5 12.4294 3.50039 12.4877 3.50516L12.4943 3.50573L12.4949 3.51232C12.4996 3.57061 12.5 3.65174 12.5 3.8V7.5H13.5V3.78405V3.78399V3.78397V3.78395V3.78394V3.78392C13.5 3.65778 13.5 3.53493 13.4915 3.43089C13.4822 3.31659 13.4602 3.18173 13.391 3.04601C13.2951 2.85785 13.1422 2.70487 12.954 2.609C12.8183 2.53985 12.6834 2.51781 12.5691 2.50848C12.4651 2.49997 12.3422 2.49999 12.216 2.5H12.216L3.8 2.5ZM6 5.25C6 5.66421 5.66421 6 5.25 6C4.83579 6 4.5 5.66421 4.5 5.25C4.5 4.83579 4.83579 4.5 5.25 4.5C5.66421 4.5 6 4.83579 6 5.25ZM12 10.5C12 11.3284 11.3284 12 10.5 12C9.67157 12 9 11.3284 9 10.5C9 9.67157 9.67157 9 10.5 9C11.3284 9 12 9.67157 12 10.5ZM13 10.5C13 10.9728 12.8687 11.415 12.6406 11.7921L13.9243 13.0757L13.0758 13.9243L11.7921 12.6406C11.4151 12.8687 10.9729 13 10.5 13C9.11929 13 8 11.8807 8 10.5C8 9.11929 9.11929 8 10.5 8C11.8807 8 13 9.11929 13 10.5ZM12.1035 5.89644L10.4809 4.27379L8.23087 6.77379L7.23555 5.77846L3.88257 9.41085L4.61737 10.0891L7.2644 7.22152L8.26907 8.2262L10.5191 5.7262L11.3964 6.60355L12.1035 5.89644Z" fill="white" fill-opacity="0.8"/>
</svg>
